<?xml version="1.0" encoding="UTF-8" standalone="no"?>
<!-- Created with Inkscape (http://www.inkscape.org/) -->

<svg
   xmlns:dc="http://purl.org/dc/elements/1.1/"
   xmlns:cc="http://creativecommons.org/ns#"
   xmlns:rdf="http://www.w3.org/1999/02/22-rdf-syntax-ns#"
   xmlns:svg="http://www.w3.org/2000/svg"
   xmlns="http://www.w3.org/2000/svg"
   xmlns:sodipodi="http://sodipodi.sourceforge.net/DTD/sodipodi-0.dtd"
   xmlns:inkscape="http://www.inkscape.org/namespaces/inkscape"
   width="5.6669512mm"
   height="9.1360941mm"
   viewBox="0 0 5.6669511 9.1360942"
   version="1.1"
   id="svg8"
   inkscape:export-filename="C:\Users\Aimee\Desktop\bitmap.png"
   inkscape:export-xdpi="96"
   inkscape:export-ydpi="96"
   inkscape:version="0.92.3 (2405546, 2018-03-11)"
   sodipodi:docname="hnm.svg">
  <defs
     id="defs2">
    <clipPath
       id="clipPath1474"
       clipPathUnits="userSpaceOnUse">
      <rect
         style="opacity:1;fill:#e7c600;fill-opacity:0.6825397;stroke:none;stroke-width:0.59513247;stroke-linecap:round;stroke-linejoin:round;stroke-miterlimit:4;stroke-dasharray:none;stroke-opacity:0.9254902"
         id="rect1476"
         width="37.919449"
         height="37.919449"
         x="251.71379"
         y="193.45822" />
    </clipPath>
    <clipPath
       id="clipPath1491"
       clipPathUnits="userSpaceOnUse">
      <rect
         style="opacity:1;fill:#e7c600;fill-opacity:0.57142861;stroke:none;stroke-width:0.59513247;stroke-linecap:round;stroke-linejoin:round;stroke-miterlimit:4;stroke-dasharray:none;stroke-opacity:0.9254902"
         id="rect1493"
         width="37.919449"
         height="37.919449"
         x="397.72821"
         y="197.23799" />
    </clipPath>
    <clipPath
       id="clipPath1508"
       clipPathUnits="userSpaceOnUse">
      <rect
         y="91.380951"
         x="378.73215"
         height="190.5"
         width="112.6369"
         id="rect1510"
         style="opacity:1;fill:#e7c600;fill-opacity:0.57142861;stroke:#e7c600;stroke-width:0.69999999;stroke-linecap:round;stroke-linejoin:round;stroke-miterlimit:4;stroke-dasharray:none;stroke-opacity:1" />
    </clipPath>
    <clipPath
       id="clipPath1514"
       clipPathUnits="userSpaceOnUse">
      <rect
         style="opacity:1;fill:#e7c600;fill-opacity:0.61375661;stroke:none;stroke-width:1.28078842;stroke-linecap:round;stroke-linejoin:round;stroke-miterlimit:4;stroke-dasharray:none;stroke-opacity:0.9254902"
         id="rect1516"
         width="81.606689"
         height="81.606689"
         x="395.65411"
         y="124.28867" />
    </clipPath>
    <clipPath
       id="clipPath1531"
       clipPathUnits="userSpaceOnUse">
      <rect
         y="248.54471"
         x="400.5871"
         height="124.86775"
         width="124.86775"
         id="rect1533"
         style="opacity:1;fill:#e7c600;fill-opacity:0.61375661;stroke:#e7c600;stroke-width:0.69409025;stroke-linecap:round;stroke-linejoin:round;stroke-miterlimit:4;stroke-dasharray:none;stroke-opacity:1" />
    </clipPath>
  </defs>
  <sodipodi:namedview
     id="base"
     pagecolor="#ffffff"
     bordercolor="#666666"
     borderopacity="1.0"
     inkscape:pageopacity="0.0"
     inkscape:pageshadow="2"
     inkscape:zoom="3.959798"
     inkscape:cx="1.7258912"
     inkscape:cy="15.530268"
     inkscape:document-units="mm"
     inkscape:current-layer="layer1"
     showgrid="false"
     showguides="false"
     inkscape:guide-bbox="true"
     inkscape:snap-object-midpoints="false"
     inkscape:snap-bbox="true"
     inkscape:bbox-nodes="false"
     inkscape:snap-bbox-edge-midpoints="true"
     inkscape:snap-global="false"
     fit-margin-top="0"
     fit-margin-left="0"
     fit-margin-right="0"
     fit-margin-bottom="0"
     inkscape:window-width="1366"
     inkscape:window-height="745"
     inkscape:window-x="-8"
     inkscape:window-y="-8"
     inkscape:window-maximized="1">
    <sodipodi:guide
       position="166.51791,-30.932712"
       orientation="0,1"
       id="guide1209"
       inkscape:locked="false" />
    <sodipodi:guide
       position="82.607218,65.588778"
       orientation="1,0"
       id="guide1446"
       inkscape:locked="false" />
    <sodipodi:guide
       position="-86.726105,65.588788"
       orientation="1,0"
       id="guide1448"
       inkscape:locked="false" />
    <sodipodi:guide
       position="-86.726121,-469.9334"
       orientation="0,640.6339"
       id="guide4919"
       inkscape:locked="false" />
    <sodipodi:guide
       position="82.774928,-469.9334"
       orientation="-2024.0207,0"
       id="guide4921"
       inkscape:locked="false" />
    <sodipodi:guide
       position="82.774928,65.588748"
       orientation="0,-640.6339"
       id="guide4923"
       inkscape:locked="false" />
    <sodipodi:guide
       position="-86.726121,65.588748"
       orientation="2024.0207,0"
       id="guide4925"
       inkscape:locked="false" />
  </sodipodi:namedview>
  <metadata
     id="metadata5">
    <rdf:RDF>
      <cc:Work
         rdf:about="">
        <dc:format>image/svg+xml</dc:format>
        <dc:type
           rdf:resource="http://purl.org/dc/dcmitype/StillImage" />
        <dc:title></dc:title>
      </cc:Work>
    </rdf:RDF>
  </metadata>
  <g
     inkscape:label="Layer 1"
     inkscape:groupmode="layer"
     id="layer1"
     transform="translate(411.29301,152.13474)">
    <g
       transform="matrix(0.05048838,0,0,0.05048838,-423.00768,-154.14586)"
       style="fill:#000000;fill-opacity:1;stroke:#000000;stroke-width:11.52238941;stroke-linecap:square;stroke-linejoin:miter;stroke-miterlimit:4;stroke-dasharray:none;stroke-opacity:1"
       id="g1261">
      <g
         id="g1212">
        <path
           sodipodi:nodetypes="czcscsczcaczcasac"
           inkscape:connector-curvature="0"
           id="path1255"
           d="m 296.86847,49.482604 c 0,0 7.77665,-0.820261 15.11098,4.760513 7.33433,5.580774 12.38579,16.484276 12.38579,16.484276 0,0 5.99523,15.935085 5.72715,24.229956 -0.39985,12.372541 -6.93022,18.908581 -6.93022,18.908581 0,0 0.70646,-11.68086 -8.39983,-22.015316 -4.83613,-5.488371 -17.89576,-12.701754 -17.89576,-12.701754 0,0 -5.95261,12.793369 -16.12787,20.043651 -10.17525,7.250289 -30.27615,8.142489 -30.27615,8.142489 0,0 -3.18914,4.95901 -3.23456,7.76147 -0.14874,9.17944 9.76549,25.75253 9.76549,25.75253 0,0 -9.42668,-5.04947 -15.07873,-16.76941 -5.65205,-11.71995 -4.51407,-26.540995 -4.51407,-26.540995 0,0 2.18711,-20.009831 6.50109,-28.886916 3.2589,-6.705968 7.96884,-13.135983 14.12291,-17.345224 5.56493,-3.806275 12.51274,-5.905621 19.24775,-6.21526 6.68695,-0.30743 19.59603,4.391409 19.59603,4.391409 z"
           style="fill:#000000;fill-opacity:1;stroke:#000000;stroke-width:10.47851753;stroke-linecap:square;stroke-linejoin:miter;stroke-miterlimit:4;stroke-dasharray:none;stroke-opacity:1" />
        <path
           sodipodi:nodetypes="csazczcac"
           inkscape:connector-curvature="0"
           id="path1257"
           d="m 319.40987,136.1041 c 7.89914,7.35633 13.06581,13.50264 16.69698,20.29396 3.58191,6.6992 3.41624,15.31834 1.72581,22.72454 -1.73444,7.59903 -9.74961,10.77136 -11.71199,20.23885 -1.9624,9.46749 2.91373,16.14506 2.91373,16.14506 0,0 -9.37918,1.6294 -20.6492,-13.4014 -11.27004,-15.03079 -8.20356,-37.63436 -8.20356,-37.63436 0,0 8.10156,-6.91393 11.12523,-11.229 3.62617,-5.17489 8.103,-17.13765 8.103,-17.13765 z"
           style="fill:#000000;fill-opacity:1;stroke:#000000;stroke-width:10.47851753;stroke-linecap:square;stroke-linejoin:miter;stroke-miterlimit:4;stroke-dasharray:none;stroke-opacity:1" />
        <path
           sodipodi:nodetypes="caacsscssc"
           inkscape:connector-curvature="0"
           id="path1259"
           d="m 275.96695,142.51835 c 0,0 2.23846,-0.26564 3.30116,-0.61766 2.00024,-0.66256 3.57178,-2.78605 5.67889,-2.7767 0.86468,0.004 2.3202,1.1601 2.3202,1.1601 0,0 1.45649,-1.20473 2.27724,-1.20307 1.87316,0.004 3.65445,2.01956 5.40748,2.67956 1.28908,0.48532 3.44364,0.88667 3.44364,0.88667 0,0 -2.51786,5.00667 -5.80049,6.14424 -3.41065,1.18195 -7.43156,1.05147 -10.8276,-0.17187 -3.1285,-1.12697 -5.80052,-6.10127 -5.80052,-6.10127 z"
           style="fill:#000000;fill-opacity:1;stroke:#000000;stroke-width:10.47851753;stroke-linecap:square;stroke-linejoin:miter;stroke-miterlimit:4;stroke-dasharray:none;stroke-opacity:1" />
      </g>
    </g>
  </g>
</svg>
