<?xml version="1.0" encoding="UTF-8" standalone="no"?>
<!-- Created with Inkscape (http://www.inkscape.org/) -->

<svg
   xmlns:dc="http://purl.org/dc/elements/1.1/"
   xmlns:cc="http://creativecommons.org/ns#"
   xmlns:rdf="http://www.w3.org/1999/02/22-rdf-syntax-ns#"
   xmlns:svg="http://www.w3.org/2000/svg"
   xmlns="http://www.w3.org/2000/svg"
   xmlns:sodipodi="http://sodipodi.sourceforge.net/DTD/sodipodi-0.dtd"
   xmlns:inkscape="http://www.inkscape.org/namespaces/inkscape"
   width="7.6248493mm"
   height="7.1427174mm"
   viewBox="0 0 7.6248492 7.1427174"
   version="1.1"
   id="svg8"
   inkscape:export-filename="C:\Users\Aimee\Desktop\bitmap.png"
   inkscape:export-xdpi="96"
   inkscape:export-ydpi="96"
   inkscape:version="0.92.3 (2405546, 2018-03-11)"
   sodipodi:docname="sfx.svg">
  <defs
     id="defs2">
    <clipPath
       id="clipPath1474"
       clipPathUnits="userSpaceOnUse">
      <rect
         style="opacity:1;fill:#e7c600;fill-opacity:0.6825397;stroke:none;stroke-width:0.59513247;stroke-linecap:round;stroke-linejoin:round;stroke-miterlimit:4;stroke-dasharray:none;stroke-opacity:0.9254902"
         id="rect1476"
         width="37.919449"
         height="37.919449"
         x="251.71379"
         y="193.45822" />
    </clipPath>
    <clipPath
       id="clipPath1491"
       clipPathUnits="userSpaceOnUse">
      <rect
         style="opacity:1;fill:#e7c600;fill-opacity:0.57142861;stroke:none;stroke-width:0.59513247;stroke-linecap:round;stroke-linejoin:round;stroke-miterlimit:4;stroke-dasharray:none;stroke-opacity:0.9254902"
         id="rect1493"
         width="37.919449"
         height="37.919449"
         x="397.72821"
         y="197.23799" />
    </clipPath>
    <clipPath
       id="clipPath1508"
       clipPathUnits="userSpaceOnUse">
      <rect
         y="91.380951"
         x="378.73215"
         height="190.5"
         width="112.6369"
         id="rect1510"
         style="opacity:1;fill:#e7c600;fill-opacity:0.57142861;stroke:#e7c600;stroke-width:0.69999999;stroke-linecap:round;stroke-linejoin:round;stroke-miterlimit:4;stroke-dasharray:none;stroke-opacity:1" />
    </clipPath>
    <clipPath
       id="clipPath1514"
       clipPathUnits="userSpaceOnUse">
      <rect
         style="opacity:1;fill:#e7c600;fill-opacity:0.61375661;stroke:none;stroke-width:1.28078842;stroke-linecap:round;stroke-linejoin:round;stroke-miterlimit:4;stroke-dasharray:none;stroke-opacity:0.9254902"
         id="rect1516"
         width="81.606689"
         height="81.606689"
         x="395.65411"
         y="124.28867" />
    </clipPath>
    <clipPath
       id="clipPath1531"
       clipPathUnits="userSpaceOnUse">
      <rect
         y="248.54471"
         x="400.5871"
         height="124.86775"
         width="124.86775"
         id="rect1533"
         style="opacity:1;fill:#e7c600;fill-opacity:0.61375661;stroke:#e7c600;stroke-width:0.69409025;stroke-linecap:round;stroke-linejoin:round;stroke-miterlimit:4;stroke-dasharray:none;stroke-opacity:1" />
    </clipPath>
  </defs>
  <sodipodi:namedview
     id="base"
     pagecolor="#ffffff"
     bordercolor="#666666"
     borderopacity="1.0"
     inkscape:pageopacity="0.0"
     inkscape:pageshadow="2"
     inkscape:zoom="1.4"
     inkscape:cx="-75.704133"
     inkscape:cy="-42.906523"
     inkscape:document-units="mm"
     inkscape:current-layer="layer1"
     showgrid="false"
     showguides="false"
     inkscape:guide-bbox="true"
     inkscape:snap-object-midpoints="false"
     inkscape:snap-bbox="true"
     inkscape:bbox-nodes="false"
     inkscape:snap-bbox-edge-midpoints="true"
     inkscape:snap-global="true"
     fit-margin-top="0"
     fit-margin-left="0"
     fit-margin-right="0"
     fit-margin-bottom="0"
     inkscape:window-width="1366"
     inkscape:window-height="745"
     inkscape:window-x="-8"
     inkscape:window-y="-8"
     inkscape:window-maximized="1">
    <sodipodi:guide
       position="176.89292,-21.096482"
       orientation="0,1"
       id="guide1209"
       inkscape:locked="false" />
    <sodipodi:guide
       position="92.982231,75.425006"
       orientation="1,0"
       id="guide1446"
       inkscape:locked="false" />
    <sodipodi:guide
       position="-76.351092,75.425016"
       orientation="1,0"
       id="guide1448"
       inkscape:locked="false" />
  </sodipodi:namedview>
  <metadata
     id="metadata5">
    <rdf:RDF>
      <cc:Work
         rdf:about="">
        <dc:format>image/svg+xml</dc:format>
        <dc:type
           rdf:resource="http://purl.org/dc/dcmitype/StillImage" />
        <dc:title></dc:title>
      </cc:Work>
    </rdf:RDF>
  </metadata>
  <g
     inkscape:label="Layer 1"
     inkscape:groupmode="layer"
     id="layer1"
     transform="translate(421.66802,140.30513)">
    <path
       sodipodi:nodetypes="csssaacsssscsssccczsacccsscczzscsssaaaassszcccccccccccc"
       inkscape:connector-curvature="0"
       id="path1251"
       d="m -417.04471,-136.58679 c 0,0 0.2089,1.05757 0.47058,1.48289 0.18372,0.29859 0.33362,0.40324 0.82891,0.64736 0.42562,0.20979 0.99415,0.3832 1.11102,0.44605 0.1528,0.0822 0.34936,0.24051 0.31895,0.41132 -0.0176,0.0992 -0.15743,0.14067 -0.25625,0.16024 -0.13486,0.0267 -0.4066,-0.0689 -0.4066,-0.0689 0,0 0.52621,0.0778 0.50262,-0.13227 -0.0235,-0.20915 -0.70723,-0.30603 -0.94387,-0.35734 -0.1347,-0.0292 -0.48765,-0.0725 -0.84881,-0.10178 -0.27324,-0.0222 -0.54493,-0.0354 -0.74286,-0.11413 -0.29462,-0.11713 -0.6192,-0.49629 -0.6192,-0.49629 0,0 -0.005,0.35024 -0.1214,0.37454 -0.26823,0.0558 -0.46841,0.0317 -0.60879,0.008 -0.10734,-0.0183 -0.12179,-0.25111 -0.0562,-0.3382 0.055,-0.0729 0.26819,-0.0623 0.26819,-0.0623 l 0.008,-0.21377 -0.5141,-0.20281 c 0,0 0.0316,0.64003 -0.0632,0.76261 -0.0949,0.12259 -0.61127,0.0669 -0.69652,0.0243 -0.0937,-0.0468 -0.062,-0.25273 0.0119,-0.33766 0.0455,-0.0523 0.20486,-0.0358 0.20486,-0.0358 l 0.0171,-0.92739 -0.50004,-0.42228 c 0,0 -0.33303,0.23227 -0.55454,0.33874 -0.1098,0.0528 -0.30596,-0.1436 -0.22035,-0.27701 0.1125,-0.17531 0.41026,-0.41756 0.41026,-0.41756 l -0.13067,-0.18873 c 0,0 -0.26892,0.13761 -0.39948,0.0974 -0.13056,-0.0402 -0.18204,-0.16298 -0.154,-0.26293 0.028,-0.1 0.14824,-0.13144 0.24323,-0.14449 0.077,-0.0106 0.21681,-0.0859 0.21681,-0.0859 0,0 -0.0698,-0.71982 -0.17154,-1.06681 -0.0969,-0.3305 -0.0805,-0.8316 -0.21074,-0.93795 -0.12289,-0.10036 -0.25861,-0.13857 -0.41961,-0.2247 -0.12554,-0.0672 -0.24968,-0.17234 -0.2976,-0.30642 -0.0353,-0.0986 -0.0379,-0.23043 0.0265,-0.31304 0.10411,-0.13363 0.3113,-0.17229 0.48057,-0.16533 0.20023,0.008 0.40923,0.0995 0.55054,0.24161 0.10352,0.1041 0.15171,0.2593 0.17472,0.4043 0.0226,0.14284 0.005,0.1987 0.0694,0.44072 0.0561,0.20957 0.16511,0.45083 0.26044,0.63317 0.12019,0.22988 0.29352,0.38103 0.45763,0.47671 0.1641,0.0957 0.47564,0.0921 0.47564,0.0921 l 0.33197,-0.32519 0.15097,0.13173 0.27023,-0.23808 0.22098,0.18001 0.45327,-0.0441 0.11828,0.38059 0.37187,0.17119 -0.0597,0.38549 0.17948,0.0877 -0.0503,0.42058 z"
       style="fill:#000000;fill-opacity:1;stroke:#000000;stroke-width:0.53761363;stroke-linecap:butt;stroke-linejoin:round;stroke-miterlimit:4;stroke-dasharray:none;stroke-opacity:1" />
  </g>
</svg>
